:SAMPLES-PER-SECOND 30
:FULLY-SPECIFIED
:DEGREES
307
root  41.2859 37.6091 -3.8533 177.835 -65.6701 175.447
RightUpLeg  -18.3488 -6.08381 -2.70108
RightLeg  0.750129 -4.22359 1.50047
RightFoot  -4.67362 -0.541345 8.4615
RightToes  5.47152e-009 0 -3.6325e-017
Spine  6.16832 -1.34746 1.25607
Spine1  11.7578 -0.911515 -2.08307
HEad  -6.07153 -3.79928 -1.34954
LeftShoulder1  -0.339787 4.39459 -31.9515
LeftArm  -5.64126 11.2474 -42.1643
LeftForeArm  32.863 -1.96083 -7.678
LeftHand  -0.077287 6.49971 -3.87576
RightShoulder  -0.686293 -5.44587 28.6513
RightArm  19.2584 -5.6015 46.6125
RightForeArm  6.28344 13.6659 6.89775
RightHand  -0.286242 2.50921 -4.43599
LeftUpLeg  19.4851 7.13319 -2.78017
LeftLeg  11.8064 -16.7571 -2.82847
LeftFoot  -20.1652 0.830889 9.19487
LeftToes  -4.29285e-010 1.49941e-010 2.15559e-012
308
root  39.9286 37.3839 -4.59816 177.347 -67.3167 176.389
RightUpLeg  -19.2696 -6.50077 -1.29056
RightLeg  6.19849 -3.42248 1.45693
RightFoot  -3.28396 -0.390504 6.50601
RightToes  5.47152e-009 0 -3.6325e-017
Spine  5.28765 -1.70858 1.90767
Spine1  11.991 -1.55669 -1.25325
HEad  -6.48008 -3.56236 -1.55574
LeftShoulder1  -0.495515 4.77797 -32.7664
LeftArm  -5.06431 14.3607 -40.8312
LeftForeArm  32.5234 -2.88915 -7.98103
LeftHand  -0.122398 7.56098 -4.00931
RightShoulder  -0.65005 -5.34676 28.5644
RightArm  17.0502 -5.33473 45.9936
RightForeArm  6.71255 12.6017 6.87646
RightHand  -0.325919 1.9932 -5.33708
LeftUpLeg  20.8274 6.18575 -1.96922
LeftLeg  13.4669 -17.539 -2.92532
LeftFoot  -20.8598 0.802833 8.0907
LeftToes  -4.29285e-010 1.49941e-010 2.15559e-012
309
root  38.5734 37.443 -5.31388 175.581 -69.0148 178.989
RightUpLeg  -20.6086 -6.12824 0.451532
RightLeg  10.3093 -2.4735 0.796254
RightFoot  3.58318 0.259161 -2.17574
RightToes  5.47152e-009 0 -3.6325e-017
Spine  4.45408 -1.65745 4.08959
Spine1  12.0894 -1.73481 -0.12784
HEad  -6.77152 -4.48973 -2.29043
LeftShoulder1  -0.53265 4.85877 -33.1579
LeftArm  -4.81786 16.912 -39.9621
LeftForeArm  31.6106 -3.36163 -8.03929
LeftHand  -0.0777228 6.56735 -3.68161
RightShoulder  -0.750119 -5.61826 28.8133
RightArm  15.0329 -5.75944 44.6017
RightForeArm  6.73772 11.677 6.68668
RightHand  -0.304646 2.70869 -4.71172
LeftUpLeg  22.3642 3.73996 -0.879895
LeftLeg  13.3729 -17.6419 -3.06259
LeftFoot  -19.3182 0.552077 6.26926
LeftToes  -4.29285e-010 1.49941e-010 2.15559e-012
310
root  37.0933 37.3529 -6.08126 172.473 -69.3321 -177.541
RightUpLeg  -21.467 -5.83436 2.2172
RightLeg  15.916 -1.48252 -0.360443
RightFoot  6.27105 0.316062 -1.77268
RightToes  5.47152e-009 0 -3.6325e-017
Spine  4.55719 -1.24898 7.68358
Spine1  11.0277 -0.805649 -1.19023
HEad  -6.74642 -5.25824 -2.93578
LeftShoulder1  -0.58412 4.98609 -33.249
LeftArm  -5.80165 18.7623 -39.7871
LeftForeArm  30.3715 -3.88226 -7.45739
LeftHand  -0.0865484 6.80365 -3.67394
RightShoulder  -0.897849 -5.99224 29.5001
RightArm  13.131 -5.49655 43.045
RightForeArm  6.86933 9.89359 6.59413
RightHand  -0.286734 0.205007 -5.97196
LeftUpLeg  22.7482 0.79014 0.063918
LeftLeg  17.3091 -16.1032 -4.76724
LeftFoot  -17.8176 0.29409 3.33794
LeftToes  -4.29285e-010 1.49941e-010 2.15559e-012
311
root  35.719 37.3107 -6.78442 170.036 -69.1883 -174.539
RightUpLeg  -21.9447 -6.69151 3.75518
RightLeg  20.7137 -0.260018 -0.366985
RightFoot  4.10832 0.444528 -3.08603
RightToes  5.47152e-009 0 -3.6325e-017
Spine  4.26278 -0.835525 11.4074
Spine1  10.687 0.345854 -2.60498
HEad  -6.96723 -6.0633 -3.50818
LeftShoulder1  -0.534978 4.87203 -32.9571
LeftArm  -7.37609 20.054 -40.3015
LeftForeArm  29.1067 -4.76056 -6.58942
LeftHand  -0.0952882 7.18547 -3.32669
RightShoulder  -0.902662 -5.98389 29.7884
RightArm  12.0191 -4.36783 42.4929
RightForeArm  7.22824 6.99547 6.60564
RightHand  -0.262358 1.27605 -4.67463
LeftUpLeg  20.9825 -0.0950266 1.7441
LeftLeg  24.1216 -16.4576 -7.69177
LeftFoot  -14.0411 0.0852658 -0.67872
LeftToes  -4.29285e-010 1.49941e-010 2.15559e-012
312
root  34.5666 37.322 -7.46631 166.75 -70.7352 -170.504
RightUpLeg  -21.8828 -8.14322 4.97442
RightLeg  23.9762 -0.488332 -0.471729
RightFoot  1.33551 0.483064 -4.24334
RightToes  5.47152e-009 0 -3.6325e-017
Spine  3.92918 -1.06811 13.269
Spine1  10.8805 0.182539 -1.49784
HEad  -8.20688 -6.47876 -3.63262
LeftShoulder1  -0.495624 4.7696 -32.9853
LeftArm  -6.97525 20.0572 -40.4514
LeftForeArm  27.4676 -6.33356 -6.91877
LeftHand  -0.082463 7.01456 -2.91742
RightShoulder  -0.793317 -5.74296 28.8135
RightArm  11.3684 -2.8206 43.4512
RightForeArm  7.15167 4.64082 6.49975
RightHand  -0.326051 1.34333 -5.7599
LeftUpLeg  15.8765 -1.178 4.18133
LeftLeg  34.8409 -16.9591 -11.9978
LeftFoot  -6.88159 0.275063 -6.04919
LeftToes  -4.29285e-010 1.49941e-010 2.15559e-012
313
root  33.5172 37.363 -8.11899 161.544 -73.1459 -164.702
RightUpLeg  -21.0064 -10.1197 6.16051
RightLeg  25.8389 -1.22224 -0.884095
RightFoot  -1.57863 0.351115 -4.21773
RightToes  5.47152e-009 0 -3.6325e-017
Spine  4.34883 -1.42589 15.1185
Spine1  10.0642 -0.0166163 -0.534571
HEad  -8.81186 -7.39031 -2.79254
LeftShoulder1  -0.383188 4.49416 -32.5735
LeftArm  -5.70271 18.8134 -40.7482
LeftForeArm  28.4345 -8.14091 -7.48162
LeftHand  -0.0593531 6.19192 -3.117
RightShoulder  -0.795019 -5.7489 28.7849
RightArm  12.3363 -1.76882 43.0608
RightForeArm  8.72547 4.77958 6.81779
RightHand  -0.259452 0.926969 -4.88169
LeftUpLeg  8.86479 -3.86387 6.05228
LeftLeg  46.4143 -14.1401 -14.9381
LeftFoot  3.96942 1.34445 -9.89757
LeftToes  -4.29285e-010 1.49941e-010 2.15559e-012
314
root  32.5388 37.4185 -8.73039 155.739 -74.4852 -158.9
RightUpLeg  -19.3147 -12.0416 7.24423
RightLeg  26.9816 -1.1222 -0.837133
RightFoot  -4.12105 0.22177 -3.96434
RightToes  5.47152e-009 0 -3.6325e-017
Spine  5.07517 -1.38026 17.2819
Spine1  9.90818 0.492063 -0.312368
HEad  -9.56393 -9.3519 -1.96149
LeftShoulder1  -0.353145 4.41525 -32.5729
LeftArm  -2.19429 16.8209 -41.14
LeftForeArm  27.1499 -11.7831 -7.46548
LeftHand  -0.0745368 6.61754 -3.2999
RightShoulder  -0.777251 -5.70513 28.677
RightArm  13.3609 -0.535921 42.9152
RightForeArm  8.30412 5.90728 7.22637
RightHand  -0.242682 0.823979 -4.64873
LeftUpLeg  2.59843 -5.62949 7.57943
LeftLeg  54.9444 -9.4969 -13.7257
LeftFoot  13.5077 2.79886 -13.215
LeftToes  -4.29285e-010 1.49941e-010 2.15559e-012
315
root  31.4815 37.6434 -9.40872 153.62 -75.3281 -157.449
RightUpLeg  -16.0485 -13.2718 7.07296
RightLeg  26.4362 -1.1396 -0.524445
RightFoot  -6.06315 0.139918 -3.91367
RightToes  5.47152e-009 0 -3.6325e-017
Spine  5.39509 -1.10105 18.0442
Spine1  10.3417 1.21533 -1.12347
HEad  -10.7567 -10.6181 -0.491316
LeftShoulder1  -0.280782 4.24524 -31.7624
LeftArm  2.95542 15.8339 -42.3407
LeftForeArm  21.8925 -17.6137 -5.69259
LeftHand  -0.0359921 5.42698 -2.96651
RightShoulder  -0.760513 -5.64196 28.9019
RightArm  14.5856 1.36071 43.0885
RightForeArm  7.31895 7.35449 7.6924
RightHand  -0.295536 0.768814 -5.67398
LeftUpLeg  -2.47178 -6.29789 7.97895
LeftLeg  61.2509 -5.79226 -10.8274
LeftFoot  11.0827 2.36239 -12.1243
LeftToes  -4.29285e-010 1.49941e-010 2.15559e-012
316
root  30.3535 38.0009 -10.1012 154.73 -76.0431 -159.305
RightUpLeg  -11.9931 -13.2872 5.88449
RightLeg  24.663 -1.64924 0.0215396
RightFoot  -7.42715 0.0759962 -3.7081
RightToes  5.47152e-009 0 -3.6325e-017
Spine  5.53617 -0.933547 17.4284
Spine1  10.4844 1.49254 -1.7635
HEad  -10.6628 -10.1467 -0.397371
LeftShoulder1  -0.288044 4.26525 -31.6867
LeftArm  5.31937 15.8744 -42.7093
LeftForeArm  17.7879 -23.7448 -4.08385
LeftHand  0.0113694 3.14096 -1.43449
RightShoulder  -0.657813 -5.3963 28.0727
RightArm  16.5774 3.51989 44.4266
RightForeArm  6.3078 8.88735 8.16433
RightHand  -0.378881 1.88649 -6.22117
LeftUpLeg  -6.81998 -6.59115 7.28214
LeftLeg  64.1903 -4.09613 -8.58778
LeftFoot  7.85431 1.23818 -7.65805
LeftToes  -4.29285e-010 1.49941e-010 2.15559e-012
